<svg id="Layer_1" data-name="Layer 1" xmlns="http://www.w3.org/2000/svg" viewBox="0 0 200 200"><defs><style>.cls-1{fill:#09b824;}.cls-2{fill:#240cf5;}.cls-3{fill:#e80019;}</style></defs><path class="cls-1" d="M35.14,160.74c-.32.19-.64.35-1,.52a10.39,10.39,0,0,0,6,18.88H159.49a10.4,10.4,0,0,0,5.2-19.4L105,126.3a10.31,10.31,0,0,0-9.6-.39c-.21.12-.41.26-.63.39Z"/><path class="cls-2" d="M89.54,99.17V30.29a10.4,10.4,0,0,0-19.4-5.2L10.48,128.42A10,10,0,0,0,12.13,141a10,10,0,0,0,11.67,2.1c.24-.15.47-.31.71-.45l59.66-34.44c.27-.16.55-.3.83-.44A10.43,10.43,0,0,0,89.54,99.17Z"/><path class="cls-3" d="M115.66,108.18l59.66,34.44a10.39,10.39,0,0,0,14.2-14.2L129.86,25.09a9.67,9.67,0,0,0-8.73-5.23,11.52,11.52,0,0,0-3,.39,10,10,0,0,0-7.71,10V99.17A10.42,10.42,0,0,0,115.66,108.18Z"/></svg>